<mxfile host="app.diagrams.net" agent="Mozilla/5.0 (Windows NT 10.0; Win64; x64) AppleWebKit/537.36 (KHTML, like Gecko) Chrome/126.0.0.0 Safari/537.36" version="24.7.4">
  <diagram name="Page-1" id="GsoptUx2BKwMgP37zcHH">
    <mxGraphModel dx="521" dy="324" grid="1" gridSize="10" guides="1" tooltips="1" connect="1" arrows="1" fold="1" page="1" pageScale="1" pageWidth="827" pageHeight="1169" math="0" shadow="0">
      <root>
        <mxCell id="0" />
        <mxCell id="1" parent="0" />
        <mxCell id="QDlO4yR1_Mp4Ph0Y1l6y-1" value="" style="triangle;whiteSpace=wrap;html=1;rotation=-90;fillColor=default;" parent="1" vertex="1">
          <mxGeometry x="166.75" y="-130" width="337.5" height="640" as="geometry" />
        </mxCell>
        <mxCell id="QDlO4yR1_Mp4Ph0Y1l6y-2" value="" style="ellipse;whiteSpace=wrap;html=1;aspect=fixed;fillColor=#1ba1e2;strokeColor=#006EAF;fontColor=#ffffff;" parent="1" vertex="1">
          <mxGeometry x="310.5" y="63.75" width="50" height="50" as="geometry" />
        </mxCell>
        <mxCell id="QDlO4yR1_Mp4Ph0Y1l6y-3" value="" style="ellipse;whiteSpace=wrap;html=1;aspect=fixed;dashed=1;" parent="1" vertex="1">
          <mxGeometry x="190.5" y="183.75" width="50" height="50" as="geometry" />
        </mxCell>
        <mxCell id="QDlO4yR1_Mp4Ph0Y1l6y-4" value="" style="ellipse;whiteSpace=wrap;html=1;aspect=fixed;fillColor=#1ba1e2;fontColor=#ffffff;strokeColor=#006EAF;" parent="1" vertex="1">
          <mxGeometry x="270.5" y="183.75" width="50" height="50" as="geometry" />
        </mxCell>
        <mxCell id="QDlO4yR1_Mp4Ph0Y1l6y-5" value="" style="ellipse;whiteSpace=wrap;html=1;aspect=fixed;dashed=1;" parent="1" vertex="1">
          <mxGeometry x="350.5" y="183.75" width="50" height="50" as="geometry" />
        </mxCell>
        <mxCell id="QDlO4yR1_Mp4Ph0Y1l6y-6" value="" style="ellipse;whiteSpace=wrap;html=1;aspect=fixed;fillColor=#1ba1e2;fontColor=#ffffff;strokeColor=#006EAF;" parent="1" vertex="1">
          <mxGeometry x="430.5" y="183.75" width="50" height="50" as="geometry" />
        </mxCell>
        <mxCell id="QDlO4yR1_Mp4Ph0Y1l6y-23" value="" style="ellipse;whiteSpace=wrap;html=1;aspect=fixed;fillColor=#1ba1e2;fontColor=#ffffff;strokeColor=#006EAF;" parent="1" vertex="1">
          <mxGeometry x="515.5" y="293.75" width="50" height="50" as="geometry" />
        </mxCell>
        <mxCell id="QDlO4yR1_Mp4Ph0Y1l6y-24" value="" style="ellipse;whiteSpace=wrap;html=1;aspect=fixed;dashed=1;" parent="1" vertex="1">
          <mxGeometry x="505.5" y="293.75" width="50" height="50" as="geometry" />
        </mxCell>
        <mxCell id="QDlO4yR1_Mp4Ph0Y1l6y-25" value="" style="ellipse;whiteSpace=wrap;html=1;aspect=fixed;dashed=1;" parent="1" vertex="1">
          <mxGeometry x="495.5" y="293.75" width="50" height="50" as="geometry" />
        </mxCell>
        <mxCell id="QDlO4yR1_Mp4Ph0Y1l6y-26" value="" style="ellipse;whiteSpace=wrap;html=1;aspect=fixed;fillColor=#1ba1e2;fontColor=#ffffff;strokeColor=#006EAF;" parent="1" vertex="1">
          <mxGeometry x="485.5" y="293.75" width="50" height="50" as="geometry" />
        </mxCell>
        <mxCell id="QDlO4yR1_Mp4Ph0Y1l6y-13" value="" style="ellipse;whiteSpace=wrap;html=1;aspect=fixed;fillColor=#1ba1e2;fontColor=#ffffff;strokeColor=#006EAF;" parent="1" vertex="1">
          <mxGeometry x="290.5" y="293.75" width="50" height="50" as="geometry" />
        </mxCell>
        <mxCell id="QDlO4yR1_Mp4Ph0Y1l6y-370" value="&lt;font style=&quot;font-size: 22px;&quot;&gt;Subtree&lt;/font&gt;" style="text;html=1;align=center;verticalAlign=middle;whiteSpace=wrap;rounded=0;fontSize=22;" parent="1" vertex="1">
          <mxGeometry x="412.37" y="20" width="83.13" height="30" as="geometry" />
        </mxCell>
        <mxCell id="QDlO4yR1_Mp4Ph0Y1l6y-392" value="" style="endArrow=none;html=1;rounded=0;exitX=0.816;exitY=0.588;exitDx=0;exitDy=0;exitPerimeter=0;" parent="1" source="QDlO4yR1_Mp4Ph0Y1l6y-1" target="QDlO4yR1_Mp4Ph0Y1l6y-370" edge="1">
          <mxGeometry width="50" height="50" relative="1" as="geometry">
            <mxPoint x="273.63" y="350" as="sourcePoint" />
            <mxPoint x="323.63" y="300" as="targetPoint" />
          </mxGeometry>
        </mxCell>
        <mxCell id="QDlO4yR1_Mp4Ph0Y1l6y-393" value="&lt;font style=&quot;font-size: 22px;&quot;&gt;Available tile&lt;/font&gt;" style="text;html=1;align=center;verticalAlign=middle;whiteSpace=wrap;rounded=0;fontSize=22;" parent="1" vertex="1">
          <mxGeometry x="485.40999999999997" y="120" width="128.22" height="30" as="geometry" />
        </mxCell>
        <mxCell id="QDlO4yR1_Mp4Ph0Y1l6y-394" value="" style="endArrow=none;html=1;rounded=0;" parent="1" source="QDlO4yR1_Mp4Ph0Y1l6y-6" target="QDlO4yR1_Mp4Ph0Y1l6y-393" edge="1">
          <mxGeometry width="50" height="50" relative="1" as="geometry">
            <mxPoint x="409.63" y="99" as="sourcePoint" />
            <mxPoint x="433.63" y="60" as="targetPoint" />
          </mxGeometry>
        </mxCell>
        <mxCell id="QDlO4yR1_Mp4Ph0Y1l6y-399" value="&lt;font style=&quot;font-size: 22px;&quot;&gt;Unavailable t&lt;/font&gt;&lt;span style=&quot;font-size: 22px; background-color: initial;&quot;&gt;ile&lt;/span&gt;" style="text;html=1;align=center;verticalAlign=middle;whiteSpace=wrap;rounded=0;fontSize=22;" parent="1" vertex="1">
          <mxGeometry x="24.5" y="140" width="161" height="30" as="geometry" />
        </mxCell>
        <mxCell id="QDlO4yR1_Mp4Ph0Y1l6y-400" value="" style="endArrow=none;html=1;rounded=0;" parent="1" source="QDlO4yR1_Mp4Ph0Y1l6y-399" target="QDlO4yR1_Mp4Ph0Y1l6y-3" edge="1">
          <mxGeometry width="50" height="50" relative="1" as="geometry">
            <mxPoint x="273.63" y="290" as="sourcePoint" />
            <mxPoint x="323.63" y="240" as="targetPoint" />
          </mxGeometry>
        </mxCell>
        <mxCell id="QDlO4yR1_Mp4Ph0Y1l6y-8" value="" style="ellipse;whiteSpace=wrap;html=1;aspect=fixed;dashed=1;" parent="1" vertex="1">
          <mxGeometry x="135.5" y="293.75" width="50" height="50" as="geometry" />
        </mxCell>
        <mxCell id="QDlO4yR1_Mp4Ph0Y1l6y-7" value="" style="ellipse;whiteSpace=wrap;html=1;aspect=fixed;dashed=1;" parent="1" vertex="1">
          <mxGeometry x="125.5" y="293.75" width="50" height="50" as="geometry" />
        </mxCell>
        <mxCell id="QDlO4yR1_Mp4Ph0Y1l6y-9" value="" style="ellipse;whiteSpace=wrap;html=1;aspect=fixed;dashed=1;" parent="1" vertex="1">
          <mxGeometry x="115.5" y="293.75" width="50" height="50" as="geometry" />
        </mxCell>
        <mxCell id="QDlO4yR1_Mp4Ph0Y1l6y-10" value="" style="ellipse;whiteSpace=wrap;html=1;aspect=fixed;dashed=1;" parent="1" vertex="1">
          <mxGeometry x="105.5" y="293.75" width="50" height="50" as="geometry" />
        </mxCell>
        <mxCell id="QDlO4yR1_Mp4Ph0Y1l6y-18" value="" style="ellipse;whiteSpace=wrap;html=1;aspect=fixed;dashed=1;" parent="1" vertex="1">
          <mxGeometry x="390.5" y="293.75" width="50" height="50" as="geometry" />
        </mxCell>
        <mxCell id="QDlO4yR1_Mp4Ph0Y1l6y-19" value="" style="ellipse;whiteSpace=wrap;html=1;aspect=fixed;dashed=1;" parent="1" vertex="1">
          <mxGeometry x="380.5" y="293.75" width="50" height="50" as="geometry" />
        </mxCell>
        <mxCell id="QDlO4yR1_Mp4Ph0Y1l6y-20" value="" style="ellipse;whiteSpace=wrap;html=1;aspect=fixed;dashed=1;" parent="1" vertex="1">
          <mxGeometry x="370.5" y="293.75" width="50" height="50" as="geometry" />
        </mxCell>
        <mxCell id="QDlO4yR1_Mp4Ph0Y1l6y-21" value="" style="ellipse;whiteSpace=wrap;html=1;aspect=fixed;dashed=1;" parent="1" vertex="1">
          <mxGeometry x="360.5" y="293.75" width="50" height="50" as="geometry" />
        </mxCell>
        <mxCell id="QDlO4yR1_Mp4Ph0Y1l6y-448" value="" style="endArrow=classic;html=1;rounded=0;" parent="1" source="QDlO4yR1_Mp4Ph0Y1l6y-2" target="QDlO4yR1_Mp4Ph0Y1l6y-4" edge="1">
          <mxGeometry width="50" height="50" relative="1" as="geometry">
            <mxPoint x="446.13" y="450" as="sourcePoint" />
            <mxPoint x="496.13" y="400" as="targetPoint" />
          </mxGeometry>
        </mxCell>
        <mxCell id="QDlO4yR1_Mp4Ph0Y1l6y-449" value="" style="endArrow=classic;html=1;rounded=0;" parent="1" source="QDlO4yR1_Mp4Ph0Y1l6y-2" target="QDlO4yR1_Mp4Ph0Y1l6y-5" edge="1">
          <mxGeometry width="50" height="50" relative="1" as="geometry">
            <mxPoint x="338.13" y="122" as="sourcePoint" />
            <mxPoint x="313.13" y="195" as="targetPoint" />
          </mxGeometry>
        </mxCell>
        <mxCell id="QDlO4yR1_Mp4Ph0Y1l6y-450" value="" style="endArrow=classic;html=1;rounded=0;" parent="1" source="QDlO4yR1_Mp4Ph0Y1l6y-2" target="QDlO4yR1_Mp4Ph0Y1l6y-6" edge="1">
          <mxGeometry width="50" height="50" relative="1" as="geometry">
            <mxPoint x="348.13" y="132" as="sourcePoint" />
            <mxPoint x="323.13" y="205" as="targetPoint" />
          </mxGeometry>
        </mxCell>
        <mxCell id="QDlO4yR1_Mp4Ph0Y1l6y-451" value="" style="endArrow=classic;html=1;rounded=0;" parent="1" source="QDlO4yR1_Mp4Ph0Y1l6y-2" target="QDlO4yR1_Mp4Ph0Y1l6y-3" edge="1">
          <mxGeometry width="50" height="50" relative="1" as="geometry">
            <mxPoint x="358.13" y="142" as="sourcePoint" />
            <mxPoint x="333.13" y="215" as="targetPoint" />
          </mxGeometry>
        </mxCell>
        <mxCell id="QDlO4yR1_Mp4Ph0Y1l6y-453" value="" style="endArrow=classic;html=1;rounded=0;" parent="1" source="QDlO4yR1_Mp4Ph0Y1l6y-4" target="QDlO4yR1_Mp4Ph0Y1l6y-16" edge="1">
          <mxGeometry width="50" height="50" relative="1" as="geometry">
            <mxPoint x="378.13" y="162" as="sourcePoint" />
            <mxPoint x="353.13" y="235" as="targetPoint" />
          </mxGeometry>
        </mxCell>
        <mxCell id="QDlO4yR1_Mp4Ph0Y1l6y-454" value="" style="endArrow=classic;html=1;rounded=0;" parent="1" source="QDlO4yR1_Mp4Ph0Y1l6y-4" target="QDlO4yR1_Mp4Ph0Y1l6y-15" edge="1">
          <mxGeometry width="50" height="50" relative="1" as="geometry">
            <mxPoint x="388.13" y="172" as="sourcePoint" />
            <mxPoint x="363.13" y="245" as="targetPoint" />
          </mxGeometry>
        </mxCell>
        <mxCell id="QDlO4yR1_Mp4Ph0Y1l6y-455" value="" style="endArrow=classic;html=1;rounded=0;" parent="1" source="QDlO4yR1_Mp4Ph0Y1l6y-4" target="QDlO4yR1_Mp4Ph0Y1l6y-14" edge="1">
          <mxGeometry width="50" height="50" relative="1" as="geometry">
            <mxPoint x="398.13" y="182" as="sourcePoint" />
            <mxPoint x="373.13" y="255" as="targetPoint" />
          </mxGeometry>
        </mxCell>
        <mxCell id="QDlO4yR1_Mp4Ph0Y1l6y-456" value="" style="endArrow=classic;html=1;rounded=0;" parent="1" source="QDlO4yR1_Mp4Ph0Y1l6y-4" target="QDlO4yR1_Mp4Ph0Y1l6y-13" edge="1">
          <mxGeometry width="50" height="50" relative="1" as="geometry">
            <mxPoint x="408.13" y="192" as="sourcePoint" />
            <mxPoint x="383.13" y="265" as="targetPoint" />
          </mxGeometry>
        </mxCell>
        <mxCell id="QDlO4yR1_Mp4Ph0Y1l6y-457" value="" style="endArrow=classic;html=1;rounded=0;" parent="1" edge="1">
          <mxGeometry width="50" height="50" relative="1" as="geometry">
            <mxPoint x="472.13" y="243" as="sourcePoint" />
            <mxPoint x="499.13" y="285" as="targetPoint" />
          </mxGeometry>
        </mxCell>
        <mxCell id="QDlO4yR1_Mp4Ph0Y1l6y-458" value="" style="endArrow=classic;html=1;rounded=0;dashed=1;" parent="1" edge="1">
          <mxGeometry width="50" height="50" relative="1" as="geometry">
            <mxPoint x="381.13" y="245" as="sourcePoint" />
            <mxPoint x="393.13" y="283" as="targetPoint" />
          </mxGeometry>
        </mxCell>
        <mxCell id="QDlO4yR1_Mp4Ph0Y1l6y-459" value="" style="endArrow=classic;html=1;rounded=0;dashed=1;" parent="1" edge="1">
          <mxGeometry width="50" height="50" relative="1" as="geometry">
            <mxPoint x="193.13" y="244" as="sourcePoint" />
            <mxPoint x="167.13" y="283" as="targetPoint" />
          </mxGeometry>
        </mxCell>
        <mxCell id="QDlO4yR1_Mp4Ph0Y1l6y-463" value="&lt;font style=&quot;font-size: 22px;&quot;&gt;Root tile of Subtree&lt;/font&gt;" style="text;html=1;align=center;verticalAlign=middle;whiteSpace=wrap;rounded=0;fontSize=22;" parent="1" vertex="1">
          <mxGeometry x="120" y="40" width="121.89" height="41.62" as="geometry" />
        </mxCell>
        <mxCell id="QDlO4yR1_Mp4Ph0Y1l6y-464" value="" style="endArrow=none;html=1;rounded=0;" parent="1" source="QDlO4yR1_Mp4Ph0Y1l6y-463" target="QDlO4yR1_Mp4Ph0Y1l6y-2" edge="1">
          <mxGeometry width="50" height="50" relative="1" as="geometry">
            <mxPoint x="433.76" y="280" as="sourcePoint" />
            <mxPoint x="483.76" y="230" as="targetPoint" />
          </mxGeometry>
        </mxCell>
        <mxCell id="p7Tbk5YjuYID_gI7lelr-3" value="" style="html=1;verticalLabelPosition=bottom;align=center;labelBackgroundColor=#ffffff;verticalAlign=top;strokeWidth=2;strokeColor=#000000;shadow=0;dashed=0;shape=mxgraph.ios7.icons.home;fillColor=#000000;" vertex="1" parent="1">
          <mxGeometry x="303.5" y="306" width="24" height="25.5" as="geometry" />
        </mxCell>
        <mxCell id="QDlO4yR1_Mp4Ph0Y1l6y-14" value="" style="ellipse;whiteSpace=wrap;html=1;aspect=fixed;dashed=1;" parent="1" vertex="1">
          <mxGeometry x="260.5" y="293.75" width="50" height="50" as="geometry" />
        </mxCell>
        <mxCell id="QDlO4yR1_Mp4Ph0Y1l6y-15" value="" style="ellipse;whiteSpace=wrap;html=1;aspect=fixed;fillColor=#1ba1e2;fontColor=#ffffff;strokeColor=#006EAF;" parent="1" vertex="1">
          <mxGeometry x="230.5" y="293.75" width="50" height="50" as="geometry" />
        </mxCell>
        <mxCell id="p7Tbk5YjuYID_gI7lelr-2" value="" style="html=1;verticalLabelPosition=bottom;align=center;labelBackgroundColor=#ffffff;verticalAlign=top;strokeWidth=2;strokeColor=#000000;shadow=0;dashed=0;shape=mxgraph.ios7.icons.home;fillColor=#000000;" vertex="1" parent="1">
          <mxGeometry x="241.89" y="306" width="24" height="25.5" as="geometry" />
        </mxCell>
        <mxCell id="QDlO4yR1_Mp4Ph0Y1l6y-16" value="" style="ellipse;whiteSpace=wrap;html=1;aspect=fixed;fillColor=#1ba1e2;fontColor=#ffffff;strokeColor=#006EAF;" parent="1" vertex="1">
          <mxGeometry x="200.5" y="293.75" width="50" height="50" as="geometry" />
        </mxCell>
        <mxCell id="p7Tbk5YjuYID_gI7lelr-1" value="" style="html=1;verticalLabelPosition=bottom;align=center;labelBackgroundColor=#ffffff;verticalAlign=top;strokeWidth=2;strokeColor=#000000;shadow=0;dashed=0;shape=mxgraph.ios7.icons.home;fillColor=#000000;" vertex="1" parent="1">
          <mxGeometry x="213.5" y="306" width="24" height="25.5" as="geometry" />
        </mxCell>
        <mxCell id="p7Tbk5YjuYID_gI7lelr-4" value="" style="html=1;verticalLabelPosition=bottom;align=center;labelBackgroundColor=#ffffff;verticalAlign=top;strokeWidth=2;strokeColor=#000000;shadow=0;dashed=0;shape=mxgraph.ios7.icons.home;fillColor=#000000;" vertex="1" parent="1">
          <mxGeometry x="498.5" y="306" width="24" height="25.5" as="geometry" />
        </mxCell>
      </root>
    </mxGraphModel>
  </diagram>
</mxfile>
